<svg viewBox="-1.5 -1.5 30 30" fill="#000000" xmlns="http://www.w3.org/2000/svg" id="Github-Fill--Streamline-Remix-Fill" height="30" width="30" style="background-color: #ffffff"><desc>Github Fill Streamline Icon: https://streamlinehq.com</desc><path d="M13.501125 2.25C7.2854775 2.25 2.2511025 7.284375 2.2511025 13.5c0 4.9781249999999995 3.2203125 9.182812499999999 7.6921875 10.6734375 0.5625 0.0984375 0.7734375 -0.23906249999999998 0.7734375 -0.5343749999999999 0 -0.26718749999999997 -0.0140625 -1.153125 -0.0140625 -2.0953125 -2.8265625 0.5203125000000001 -3.5578125000000003 -0.6890625 -3.7828125 -1.3218750000000001 -0.1265625 -0.3234375 -0.6749999999999999 -1.3218750000000001 -1.153125 -1.5890625 -0.39375 -0.2109375 -0.9562499999999999 -0.7312500000000001 -0.0140625 -0.7453124999999999 0.8859374999999999 -0.0140625 1.51875 0.8156249999999999 1.7296875 1.153125 1.0125 1.7015624999999999 2.6296874999999997 1.2234375 3.2765625000000003 0.928125 0.0984375 -0.7312500000000001 0.39375 -1.2234375 0.71721 -1.5046875 -2.5031475000000003 -0.28125 -5.1187725 -1.2515625000000001 -5.1187725 -5.5546875 0 -1.2234375 0.43593750000000003 -2.2359375 1.153125 -3.0234375 -0.1125 -0.28125 -0.50625 -1.434375 0.1125 -2.9812499999999997 0 0 0.9421875000000001 -0.29531250000000003 3.09375 1.153125 0.9000225 -0.253125 1.8562725 -0.3796875 2.8125225 -0.3796875 0.9562499999999999 0 1.9124999999999999 0.1265625 2.8125 0.3796875 2.1515625000000003 -1.4625000000000001 3.09375 -1.153125 3.09375 -1.153125 0.61875 1.546875 0.225 2.6999999999999997 0.1125 2.9812499999999997 0.7171875 0.7875 1.153125 1.7859375 1.153125 3.0234375 0 4.3171875 -2.6296874999999997 5.2734375 -5.1328125 5.5546875 0.40781249999999997 0.3515625 0.759375 1.0265625 0.759375 2.0812500000000003 0 1.5046875 -0.0140625 2.7140625000000003 -0.0140625 3.09375 0 0.29531250000000003 0.2109375 0.646875 0.7734375 0.5343749999999999C21.666375000000002 22.6274625 24.7498875 18.3333375 24.751125000000002 13.5c0 -6.215625 -5.034375 -11.25 -11.25 -11.25Z" stroke-width="1.25"></path></svg>